<svg width="864" height="230" viewBox="0 0 864 230" fill="none" xmlns="http://www.w3.org/2000/svg">
<path d="M168.389 224.664L157.383 199.12H75.5855L64.4436 224.664H0.853516L102.625 2.91428H130.208L232.115 224.664H168.389ZM93.9288 156.59H138.904L116.484 104.686L93.9288 156.59Z" fill="white"/>
<path d="M343.67 229.556C281.846 229.556 224.098 183.902 224.098 115.148C224.098 50.3351 276.547 0.468506 344.757 0.468506C373.019 0.876135 403.319 13.2409 425.739 33.6223L392.313 76.5593C378.862 64.3304 361.062 56.3137 344.892 56.3137C311.195 56.3137 283.069 81.9943 283.069 115.556C283.069 149.525 312.418 174.526 343.67 174.526C362.013 174.526 378.454 165.83 392.585 153.194L425.739 197.353C404.814 216.376 376.959 229.556 343.67 229.556Z" fill="white"/>
<path d="M592.459 59.7106H507.944V90.2828H577.513V138.791H507.944V170.178H592.459V224.664H450.468V5.63181H592.459V59.7106Z" fill="white"/>
<path d="M624.934 224.664V5.63181H683.089V224.664H624.934Z" fill="white"/>
<path d="M779.289 170.042H863.125V224.664H721.134V5.63181H779.289V170.042Z" fill="white"/>
</svg>
